<?xml version="1.0" encoding="UTF-8"?>
<svg xmlns="http://www.w3.org/2000/svg" xmlns:xlink="http://www.w3.org/1999/xlink" width="3240px" height="900px" viewBox="0 0 3240 900" version="1.1">
<g id="surface1">
<path style=" stroke:none;fill-rule:nonzero;fill:rgb(16.862746%,16.470589%,16.862746%);fill-opacity:1;" d="M 1447.890625 406.816406 C 1451.460938 406.816406 1455.03125 406.816406 1458.660156 406.816406 C 1466.960938 423.425781 1475.238281 440.0625 1483.765625 457.199219 C 1492.066406 440.558594 1500.316406 423.949219 1508.867188 406.816406 C 1512.4375 407.980469 1515.925781 409.140625 1519.609375 410.386719 C 1523.179688 444.242188 1523.179688 444.242188 1526.804688 478.789062 C 1532.117188 480.589844 1532.117188 480.589844 1537.515625 482.414062 C 1536.355469 484.769531 1535.191406 487.175781 1533.945312 489.613281 C 1523.621094 490.277344 1523.621094 490.277344 1512.4375 489.613281 C 1504.605469 477.847656 1504.964844 474.277344 1505.296875 460.824219 C 1503.5 459.050781 1503.5 459.050781 1501.726562 457.199219 C 1496.964844 466.691406 1492.234375 476.214844 1487.335938 485.988281 C 1482.65625 484.824219 1477.894531 483.660156 1472.996094 482.414062 C 1466.742188 471.371094 1466.742188 471.371094 1462.230469 460.824219 C 1461.066406 460.824219 1459.90625 460.824219 1458.660156 460.824219 C 1457.273438 476.851562 1461.730469 486.484375 1469.425781 500.382812 C 1481.246094 500.382812 1493.0625 500.382812 1505.296875 500.382812 C 1507.070312 505.75 1507.070312 505.75 1508.867188 511.207031 C 1511.691406 508.878906 1514.488281 506.582031 1517.394531 504.230469 C 1532.0625 492.628906 1540.367188 492.242188 1559.050781 493.183594 C 1571.144531 497.503906 1573.167969 500.050781 1580.585938 511.207031 C 1580.585938 514.777344 1580.585938 518.292969 1580.585938 521.972656 C 1577.015625 524.382812 1573.5 526.734375 1569.816406 529.199219 C 1567.6875 539.550781 1567.6875 539.550781 1567.355469 551.234375 C 1567.132812 555.191406 1566.855469 559.152344 1566.636719 563.21875 C 1566.523438 566.238281 1566.359375 569.253906 1566.246094 572.382812 C 1543.660156 576.785156 1543.660156 576.785156 1533.28125 573.601562 C 1526.804688 568.8125 1526.804688 568.8125 1524.589844 560.480469 C 1524.425781 557.269531 1524.257812 554.085938 1524.09375 550.789062 C 1523.816406 546.027344 1523.816406 546.027344 1523.457031 541.128906 C 1523.289062 535.925781 1523.179688 530.804688 1523.179688 525.628906 C 1521.242188 526.125 1519.21875 526.625 1517.171875 527.175781 C 1502.667969 530.691406 1489.160156 533.269531 1474.214844 533.210938 C 1471.003906 533.210938 1467.820312 533.210938 1464.527344 533.210938 C 1461.066406 533.210938 1457.664062 533.15625 1454.148438 533.15625 C 1450.632812 533.15625 1447.0625 533.15625 1443.433594 533.15625 C 1432.167969 533.101562 1420.847656 533.101562 1409.582031 533.046875 C 1401.945312 532.992188 1394.359375 532.992188 1386.722656 532.992188 C 1370.003906 532.933594 1353.203125 532.878906 1336.484375 532.824219 C 1331.804688 532.824219 1327.101562 532.824219 1322.421875 532.824219 C 1297.34375 532.824219 1272.242188 532.824219 1247.136719 532.824219 C 1245.972656 530.417969 1244.808594 528.0625 1243.566406 525.628906 C 1243.566406 527.953125 1243.566406 530.359375 1243.566406 532.824219 C 1237.667969 532.824219 1231.746094 532.824219 1225.683594 532.824219 C 1225.683594 530.417969 1225.683594 528.0625 1225.683594 525.628906 C 1228.007812 525.628906 1230.417969 525.628906 1232.796875 525.628906 C 1232.796875 516.078125 1232.796875 506.582031 1232.796875 496.808594 C 1230.472656 496.808594 1228.066406 496.808594 1225.683594 496.808594 C 1225.683594 494.429688 1225.683594 492.078125 1225.683594 489.613281 C 1232.742188 489.613281 1239.828125 489.613281 1247.136719 489.613281 C 1249.542969 494.375 1251.867188 499.109375 1254.332031 504.007812 C 1256.683594 499.273438 1259.066406 494.484375 1261.527344 489.613281 C 1268.613281 489.613281 1275.699219 489.613281 1283.007812 489.613281 C 1283.007812 494.375 1283.007812 499.109375 1283.007812 504.007812 C 1284.171875 502.789062 1285.386719 501.628906 1286.632812 500.382812 C 1296.265625 500.105469 1305.871094 500.050781 1315.503906 500.160156 C 1318.242188 500.160156 1320.929688 500.214844 1323.777344 500.214844 C 1330.449219 500.269531 1337.203125 500.324219 1343.957031 500.382812 C 1343.957031 496.808594 1343.957031 493.238281 1343.957031 489.613281 C 1349.851562 489.613281 1355.777344 489.613281 1361.921875 489.613281 C 1361.921875 484.824219 1361.921875 480.089844 1361.921875 475.21875 C 1360.121094 480.535156 1360.121094 480.535156 1358.292969 485.988281 C 1352.371094 484.824219 1346.476562 483.660156 1340.386719 482.414062 C 1340.386719 470.539062 1340.386719 458.636719 1340.386719 446.375 C 1336.816406 448.144531 1336.816406 448.144531 1333.191406 450 C 1331.527344 458.472656 1331.527344 458.472656 1330.949219 468.242188 C 1330.671875 471.535156 1330.394531 474.832031 1330.171875 478.234375 C 1329.949219 480.808594 1329.785156 483.355469 1329.617188 485.988281 C 1282.34375 492.464844 1282.34375 492.464844 1261.527344 485.988281 C 1252.339844 476.796875 1252.339844 476.796875 1247.136719 468.019531 C 1245.972656 473.945312 1244.808594 479.839844 1243.566406 485.988281 C 1238.832031 485.988281 1234.097656 485.988281 1229.253906 485.988281 C 1228.5625 475.328125 1227.898438 464.671875 1227.234375 454.070312 C 1227.011719 450.996094 1226.847656 447.980469 1226.625 444.878906 C 1226.460938 441.972656 1226.292969 439.066406 1226.070312 436.105469 C 1225.90625 433.417969 1225.738281 430.761719 1225.574219 427.964844 C 1225.683594 421.210938 1225.683594 421.210938 1229.253906 414.011719 C 1233.988281 414.011719 1238.722656 414.011719 1243.566406 414.011719 C 1244.753906 419.910156 1245.972656 425.890625 1247.136719 431.980469 C 1251.867188 426.054688 1256.628906 420.160156 1261.527344 414.011719 C 1267.453125 415.175781 1273.347656 416.339844 1279.4375 417.585938 C 1275.753906 425.777344 1272.960938 431.371094 1266.207031 437.378906 C 1264.65625 439.175781 1263.078125 440.949219 1261.527344 442.800781 C 1262.304688 450.609375 1262.304688 450.609375 1265.097656 457.199219 C 1266.703125 453.683594 1268.335938 450.222656 1270 446.652344 C 1275.867188 435.605469 1275.867188 435.605469 1283.007812 431.980469 C 1289.234375 431.703125 1295.492188 431.648438 1301.746094 431.648438 C 1305.484375 431.648438 1309.164062 431.703125 1312.957031 431.703125 C 1318.742188 431.757812 1318.742188 431.757812 1324.71875 431.757812 C 1330.503906 431.8125 1330.503906 431.8125 1336.539062 431.8125 C 1346.171875 431.867188 1355.832031 431.921875 1365.492188 431.980469 C 1367.816406 439.121094 1370.222656 446.261719 1372.605469 453.625 C 1375.011719 453.625 1377.367188 453.625 1379.800781 453.625 C 1380.328125 450.71875 1380.878906 447.8125 1381.378906 444.824219 C 1383.371094 435.605469 1383.371094 435.605469 1386.996094 431.980469 C 1393.472656 431.535156 1399.953125 431.371094 1406.457031 431.316406 C 1410.027344 431.257812 1413.542969 431.257812 1417.222656 431.203125 C 1426.441406 431.980469 1426.441406 431.980469 1433.582031 439.175781 C 1434.300781 448.558594 1434.300781 448.558594 1434.023438 459.441406 C 1433.96875 463.066406 1433.914062 466.691406 1433.859375 470.375 C 1433.746094 473.167969 1433.691406 475.9375 1433.582031 478.789062 C 1435.960938 478.789062 1438.316406 478.789062 1440.777344 478.789062 C 1440.640625 476.628906 1440.585938 474.441406 1440.472656 472.199219 C 1440.03125 449.445312 1442.660156 428.90625 1447.890625 406.816406 Z M 1412.101562 464.394531 C 1410.882812 466.804688 1409.695312 469.128906 1408.476562 471.59375 C 1412.046875 470.429688 1415.617188 469.183594 1419.242188 468.019531 C 1416.890625 466.804688 1414.511719 465.613281 1412.101562 464.394531 Z M 1290.203125 468.019531 C 1304.515625 471.59375 1304.515625 471.59375 1304.515625 471.59375 Z M 1386.996094 471.59375 C 1384.5625 477.625 1384.5625 477.625 1382.042969 483.773438 C 1376.230469 496.808594 1376.230469 496.808594 1369.0625 504.007812 C 1387.496094 504.339844 1404.628906 503.453125 1422.8125 500.382812 C 1424.03125 502.789062 1425.195312 505.144531 1426.441406 507.578125 C 1432.003906 502.902344 1432.003906 502.902344 1437.152344 496.808594 C 1437.152344 493.238281 1437.152344 489.667969 1437.152344 485.988281 C 1433.96875 486.261719 1433.96875 486.261719 1430.730469 486.484375 C 1415.230469 487.230469 1407.3125 487.566406 1393.917969 478.789062 C 1391.648438 476.464844 1389.351562 474.054688 1386.996094 471.59375 Z M 1261.527344 511.207031 C 1260.3125 515.964844 1259.121094 520.699219 1257.902344 525.628906 C 1260.3125 525.628906 1262.636719 525.628906 1265.097656 525.628906 C 1263.9375 520.867188 1262.691406 516.078125 1261.527344 511.207031 Z M 1318.851562 514.777344 C 1322.421875 525.628906 1322.421875 525.628906 1322.421875 525.628906 Z M 1336.816406 514.777344 C 1336.816406 517.183594 1336.816406 519.539062 1336.816406 521.972656 C 1340.332031 520.8125 1343.902344 519.648438 1347.527344 518.402344 C 1344.011719 517.183594 1340.441406 516.023438 1336.816406 514.777344 Z M 1336.816406 514.777344 "/>
<path style=" stroke:none;fill-rule:nonzero;fill:rgb(93.725491%,18.431373%,14.509805%);fill-opacity:1;" d="M 1878.078125 342.011719 C 1881.648438 343.203125 1885.222656 344.363281 1888.847656 345.582031 C 1900.5 400.835938 1902.519531 443.578125 1879.492188 496.035156 C 1875.699219 504.921875 1873.070312 512.671875 1870.9375 521.972656 C 1884.003906 515.46875 1896.929688 508.824219 1909.9375 502.179688 C 1913.5625 500.382812 1917.191406 498.554688 1920.925781 496.699219 C 1960.453125 476.324219 1995.9375 452.410156 2014.316406 410.386719 C 2017.886719 411.605469 2021.457031 412.769531 2025.082031 414.011719 C 2027.160156 457.804688 2024.585938 485.046875 1995.523438 519.09375 C 1960.339844 556.132812 1922.53125 574.652344 1870.9375 576.007812 C 1847.023438 576.285156 1823.164062 576.230469 1799.222656 576.007812 C 1795.679688 565.183594 1795.679688 565.183594 1798.835938 557.269531 C 1803.761719 544.921875 1804.589844 533.046875 1805.753906 519.980469 C 1810.847656 474.554688 1831.910156 437.792969 1853.277344 397.984375 C 1863.078125 379.6875 1871.355469 361.667969 1878.078125 342.011719 Z M 1878.078125 342.011719 "/>
<path style=" stroke:none;fill-rule:nonzero;fill:rgb(48.235294%,75.686276%,92.156863%);fill-opacity:1;" d="M 1602.089844 619.191406 C 1610.175781 622.488281 1618.285156 625.78125 1626.421875 629.074219 C 1639.070312 634.195312 1651.664062 639.402344 1664.230469 644.855469 C 1702.039062 661.105469 1739.796875 670.042969 1780.675781 673.894531 C 1784.96875 674.335938 1784.96875 674.335938 1789.367188 674.777344 C 1796.234375 675.441406 1803.152344 676.105469 1809.988281 676.800781 C 1809.988281 680.371094 1809.988281 683.941406 1809.988281 687.621094 C 1802.683594 689.949219 1795.375 692.246094 1788.039062 694.597656 C 1783.941406 695.871094 1779.875 697.144531 1775.695312 698.503906 C 1718.539062 714.777344 1654.40625 709.4375 1598.464844 691.195312 C 1594.894531 690.226562 1591.378906 689.285156 1587.699219 688.289062 C 1561.042969 680.648438 1538.179688 667.636719 1514.265625 653.960938 C 1461.730469 623.925781 1407.589844 609.476562 1347.085938 623.484375 C 1319.625 631.371094 1293.773438 642.308594 1268.449219 655.566406 C 1265.929688 656.867188 1263.382812 658.195312 1260.808594 659.554688 C 1255.855469 662.101562 1250.925781 664.785156 1246.082031 667.46875 C 1230.304688 675.773438 1218.820312 678.183594 1200.578125 676.800781 C 1197.894531 668.6875 1197.894531 668.6875 1196.953125 658.804688 C 1219.261719 630.570312 1266.371094 621.824219 1299.835938 612.882812 C 1302.519531 612.160156 1305.207031 611.496094 1307.917969 610.722656 C 1316.359375 608.589844 1324.71875 606.652344 1333.191406 604.796875 C 1337.703125 603.800781 1337.703125 603.800781 1342.269531 602.722656 C 1423.8125 586.722656 1525.199219 586.722656 1602.089844 619.191406 Z M 1602.089844 619.191406 "/>
<path style=" stroke:none;fill-rule:nonzero;fill:rgb(48.627451%,66.666669%,30.588236%);fill-opacity:1;" d="M 1802.847656 453.625 C 1806.363281 454.789062 1809.933594 455.980469 1813.558594 457.199219 C 1805.476562 504.535156 1795.539062 538.390625 1759.808594 572.382812 C 1752.722656 577.335938 1745.578125 582.210938 1738.273438 586.777344 C 1833.488281 595.523438 1833.488281 595.523438 1924.71875 576.007812 C 1929.453125 574.707031 1934.242188 573.488281 1939.054688 572.382812 C 1938.085938 588.273438 1931.695312 597.933594 1921.203125 609.253906 C 1876.140625 648.839844 1802.351562 655.707031 1744.695312 653.519531 C 1713.695312 651 1686.015625 638.238281 1658.695312 624.066406 C 1646.988281 618.363281 1636.441406 616.894531 1623.570312 615.621094 C 1622.40625 610.832031 1621.21875 606.070312 1620 601.226562 C 1625.066406 598.875 1630.160156 596.550781 1635.222656 594.25 C 1639.457031 592.285156 1639.457031 592.285156 1643.804688 590.292969 C 1652.300781 586.777344 1652.300781 586.777344 1660.050781 585.449219 C 1667.164062 583.816406 1667.164062 583.816406 1670.238281 576.839844 C 1671.425781 574.152344 1672.589844 571.550781 1673.753906 568.8125 C 1696.0625 539.550781 1723.324219 518.238281 1752.664062 496.808594 C 1770.90625 483.441406 1787.238281 470.042969 1802.847656 453.625 Z M 1802.847656 453.625 "/>
<path style=" stroke:none;fill-rule:nonzero;fill:rgb(0.784314%,0.784314%,0.784314%);fill-opacity:1;" d="M 1942.65625 194.410156 C 1947.359375 195.601562 1952.09375 196.765625 1956.992188 197.980469 C 1999.371094 392.699219 1999.371094 392.699219 1966.707031 445.710938 C 1954.335938 461.652344 1941.105469 473.503906 1921.148438 478.789062 C 1912.84375 477.460938 1912.84375 477.460938 1906.808594 475.21875 C 1906.035156 452.1875 1908.941406 431.203125 1913.289062 408.585938 C 1913.953125 405.070312 1914.617188 401.554688 1915.28125 397.984375 C 1918.074219 382.761719 1921.039062 367.644531 1924.21875 352.503906 C 1932.855469 310.703125 1935.542969 268.683594 1938.144531 226.105469 C 1939.113281 215.394531 1940.773438 204.957031 1942.65625 194.410156 Z M 1942.65625 194.410156 "/>
<path style=" stroke:none;fill-rule:nonzero;fill:rgb(17.254902%,17.647059%,18.431373%);fill-opacity:1;" d="M 1447.890625 406.816406 C 1451.460938 406.816406 1455.03125 406.816406 1458.660156 406.816406 C 1466.960938 423.425781 1475.238281 440.0625 1483.765625 457.199219 C 1492.066406 440.558594 1500.316406 423.949219 1508.867188 406.816406 C 1512.4375 407.980469 1515.925781 409.140625 1519.609375 410.386719 C 1521.960938 432.976562 1524.367188 455.535156 1526.804688 478.789062 C 1530.320312 479.980469 1533.890625 481.199219 1537.515625 482.414062 C 1536.355469 484.769531 1535.191406 487.175781 1533.945312 489.613281 C 1523.621094 490.277344 1523.621094 490.277344 1512.4375 489.613281 C 1504.605469 477.847656 1504.964844 474.277344 1505.296875 460.824219 C 1504.109375 459.605469 1502.890625 458.414062 1501.726562 457.199219 C 1496.964844 466.691406 1492.234375 476.214844 1487.335938 485.988281 C 1482.65625 484.824219 1477.894531 483.660156 1472.996094 482.414062 C 1466.742188 471.371094 1466.742188 471.371094 1462.230469 460.824219 C 1461.066406 460.824219 1459.90625 460.824219 1458.660156 460.824219 C 1457.273438 476.851562 1461.730469 486.484375 1469.425781 500.382812 C 1481.246094 500.382812 1493.0625 500.382812 1505.296875 500.382812 C 1507.070312 505.75 1507.070312 505.75 1508.867188 511.207031 C 1511.691406 508.878906 1514.488281 506.582031 1517.394531 504.230469 C 1532.0625 492.628906 1540.367188 492.242188 1559.050781 493.183594 C 1571.144531 497.503906 1573.167969 500.050781 1580.585938 511.207031 C 1580.585938 514.777344 1580.585938 518.292969 1580.585938 521.972656 C 1577.015625 524.382812 1573.5 526.734375 1569.816406 529.199219 C 1567.6875 539.550781 1567.6875 539.550781 1567.355469 551.234375 C 1567.132812 555.191406 1566.855469 559.152344 1566.636719 563.21875 C 1566.523438 566.238281 1566.359375 569.253906 1566.246094 572.382812 C 1543.660156 576.785156 1543.660156 576.785156 1533.28125 573.601562 C 1526.804688 568.8125 1526.804688 568.8125 1524.589844 560.480469 C 1524.425781 557.269531 1524.257812 554.085938 1524.09375 550.789062 C 1523.816406 546.027344 1523.816406 546.027344 1523.457031 541.128906 C 1523.289062 535.925781 1523.179688 530.804688 1523.179688 525.628906 C 1521.242188 526.125 1519.21875 526.625 1517.171875 527.175781 C 1500.148438 531.300781 1484.816406 533.269531 1467.265625 533.15625 C 1462.726562 533.15625 1458.269531 533.15625 1453.703125 533.101562 C 1449.082031 533.101562 1444.375 533.046875 1439.644531 533.046875 C 1432.558594 532.992188 1432.558594 532.992188 1425.359375 532.992188 C 1413.761719 532.933594 1402.164062 532.878906 1390.566406 532.824219 C 1390.566406 522.113281 1390.566406 511.425781 1390.566406 500.382812 C 1403.742188 500.382812 1416.835938 500.382812 1430.011719 500.382812 C 1430.453125 497.503906 1430.898438 494.597656 1431.339844 491.632812 C 1432.058594 488.5625 1432.835938 485.542969 1433.582031 482.414062 C 1435.960938 481.199219 1438.316406 480.035156 1440.777344 478.789062 C 1440.640625 476.628906 1440.585938 474.441406 1440.472656 472.199219 C 1440.03125 449.445312 1442.660156 428.90625 1447.890625 406.816406 Z M 1447.890625 406.816406 "/>
<path style=" stroke:none;fill-rule:nonzero;fill:rgb(14.901961%,14.117648%,14.509805%);fill-opacity:1;" d="M 1942.65625 194.410156 C 1947.359375 195.601562 1952.09375 196.765625 1956.992188 197.980469 C 1999.371094 392.699219 1999.371094 392.699219 1966.707031 445.710938 C 1954.335938 461.652344 1941.105469 473.503906 1921.148438 478.789062 C 1912.84375 477.460938 1912.84375 477.460938 1906.808594 475.21875 C 1906.035156 452.1875 1908.941406 431.203125 1913.289062 408.585938 C 1913.953125 405.070312 1914.617188 401.554688 1915.28125 397.984375 C 1918.074219 382.761719 1921.039062 367.644531 1924.21875 352.503906 C 1932.855469 310.703125 1935.542969 268.683594 1938.144531 226.105469 C 1939.113281 215.394531 1940.773438 204.957031 1942.65625 194.410156 Z M 1946.226562 219.574219 C 1946.003906 222.257812 1945.835938 224.945312 1945.617188 227.683594 C 1944.730469 239.78125 1943.789062 251.851562 1942.902344 263.949219 C 1942.542969 268.128906 1942.210938 272.308594 1941.933594 276.683594 C 1941.601562 280.695312 1941.269531 284.710938 1940.992188 288.835938 C 1940.71875 292.570312 1940.441406 296.253906 1940.109375 300.101562 C 1939.054688 309.597656 1939.054688 309.597656 1935.484375 320.421875 C 1934.683594 326.011719 1934.074219 331.574219 1933.574219 337.222656 C 1933.242188 340.40625 1932.910156 343.644531 1932.636719 346.941406 C 1932.304688 350.289062 1931.96875 353.636719 1931.695312 357.097656 C 1931.335938 360.449219 1931 363.824219 1930.667969 367.339844 C 1929.894531 375.671875 1929.0625 384.035156 1928.289062 392.421875 C 1925.9375 392.421875 1923.582031 392.421875 1921.148438 392.421875 C 1914.5625 419.078125 1913.121094 444.132812 1913.953125 471.59375 C 1926.378906 469.820312 1926.378906 469.820312 1939.054688 468.019531 C 1939.054688 464.449219 1939.054688 460.878906 1939.054688 457.199219 C 1941.214844 456.367188 1943.402344 455.535156 1945.617188 454.679688 C 1955.609375 448.671875 1958.128906 442.914062 1963.027344 432.476562 C 1965.242188 427.800781 1965.242188 427.800781 1967.539062 423.039062 C 1983.703125 384.308594 1975.34375 335.148438 1967.757812 295.203125 C 1966.542969 288.613281 1965.296875 282.023438 1964.078125 275.492188 C 1960.5625 256.863281 1956.992188 238.230469 1953.367188 219.574219 C 1951.042969 219.574219 1948.6875 219.574219 1946.226562 219.574219 Z M 1946.226562 219.574219 "/>
<path style=" stroke:none;fill-rule:nonzero;fill:rgb(36.470589%,65.098041%,80.000001%);fill-opacity:1;" d="M 1447.890625 406.816406 C 1451.460938 406.816406 1455.03125 406.816406 1458.660156 406.816406 C 1466.960938 423.425781 1475.238281 440.0625 1483.765625 457.199219 C 1492.066406 440.558594 1500.316406 423.949219 1508.867188 406.816406 C 1512.4375 407.980469 1515.925781 409.140625 1519.609375 410.386719 C 1521.960938 432.976562 1524.367188 455.535156 1526.804688 478.789062 C 1530.320312 479.980469 1533.890625 481.199219 1537.515625 482.414062 C 1536.355469 484.769531 1535.191406 487.175781 1533.945312 489.613281 C 1523.621094 490.277344 1523.621094 490.277344 1512.4375 489.613281 C 1504.605469 477.847656 1504.964844 474.277344 1505.296875 460.824219 C 1504.109375 459.605469 1502.890625 458.414062 1501.726562 457.199219 C 1496.964844 466.691406 1492.234375 476.214844 1487.335938 485.988281 C 1482.65625 484.824219 1477.894531 483.660156 1472.996094 482.414062 C 1466.742188 471.371094 1466.742188 471.371094 1462.230469 460.824219 C 1461.066406 460.824219 1459.90625 460.824219 1458.660156 460.824219 C 1458.660156 463.5625 1458.660156 466.304688 1458.660156 469.128906 C 1458.660156 475.9375 1458.660156 482.746094 1458.660156 489.613281 C 1450.1875 490.277344 1450.1875 490.277344 1440.777344 489.613281 C 1438.371094 486.042969 1436.015625 482.472656 1433.582031 478.789062 C 1435.960938 478.789062 1438.316406 478.789062 1440.777344 478.789062 C 1440.640625 476.628906 1440.585938 474.441406 1440.472656 472.199219 C 1440.03125 449.445312 1442.660156 428.90625 1447.890625 406.816406 Z M 1447.890625 406.816406 "/>
<path style=" stroke:none;fill-rule:nonzero;fill:rgb(34.901962%,66.666669%,83.529413%);fill-opacity:1;" d="M 1602.089844 406.816406 C 1612.804688 406.816406 1612.804688 406.816406 1618.726562 412.324219 C 1620.773438 414.84375 1622.851562 417.308594 1624.898438 419.855469 C 1627.085938 422.429688 1629.246094 425.058594 1631.542969 427.742188 C 1634.667969 431.648438 1634.667969 431.648438 1637.910156 435.605469 C 1641.421875 439.785156 1644.9375 443.964844 1648.453125 448.199219 C 1650.890625 451.164062 1653.351562 454.125 1655.84375 457.199219 C 1655.84375 444.132812 1655.84375 431.09375 1655.84375 417.585938 C 1653.464844 417.585938 1651.109375 417.585938 1648.675781 417.585938 C 1648.675781 414.070312 1648.675781 410.496094 1648.675781 406.816406 C 1658.140625 406.816406 1667.636719 406.816406 1677.378906 406.816406 C 1675 434.136719 1672.644531 461.433594 1670.183594 489.613281 C 1649.894531 479.398438 1632.539062 465.667969 1620 446.375 C 1618.835938 457.085938 1617.648438 467.800781 1616.429688 478.789062 C 1618.78125 478.789062 1621.164062 478.789062 1623.570312 478.789062 C 1623.570312 482.359375 1623.570312 485.929688 1623.570312 489.613281 C 1614.132812 489.613281 1604.664062 489.613281 1594.894531 489.613281 C 1595.476562 486.042969 1596.03125 482.527344 1596.582031 478.898438 C 1598.6875 463.953125 1599.65625 449.058594 1600.484375 434.027344 C 1600.652344 431.425781 1600.820312 428.738281 1600.984375 426.054688 C 1601.371094 419.632812 1601.703125 413.238281 1602.089844 406.816406 Z M 1602.089844 406.816406 "/>
<path style=" stroke:none;fill-rule:nonzero;fill:rgb(1.176471%,35.294119%,61.960787%);fill-opacity:1;" d="M 1567.355469 496.144531 C 1573.386719 500.382812 1573.386719 500.382812 1580.585938 511.207031 C 1580.585938 514.777344 1580.585938 518.292969 1580.585938 521.972656 C 1577.015625 524.382812 1573.5 526.734375 1569.816406 529.199219 C 1567.6875 539.550781 1567.6875 539.550781 1567.355469 551.234375 C 1567.132812 555.191406 1566.855469 559.152344 1566.636719 563.21875 C 1566.523438 566.238281 1566.359375 569.253906 1566.246094 572.382812 C 1543.660156 576.785156 1543.660156 576.785156 1533.28125 573.601562 C 1526.804688 568.8125 1526.804688 568.8125 1524.589844 560.480469 C 1524.425781 557.269531 1524.257812 554.085938 1524.09375 550.789062 C 1523.925781 547.605469 1523.675781 544.421875 1523.457031 541.128906 C 1523.289062 535.925781 1523.179688 530.804688 1523.179688 525.628906 C 1518.445312 523.21875 1513.769531 520.867188 1508.867188 518.402344 C 1513.65625 509.265625 1517.558594 501.960938 1525.917969 495.648438 C 1540.035156 491.355469 1553.402344 491.191406 1567.355469 496.144531 Z M 1567.355469 496.144531 "/>
<path style=" stroke:none;fill-rule:nonzero;fill:rgb(95.294118%,16.078432%,12.941177%);fill-opacity:1;" d="M 1878.078125 356.40625 C 1880.488281 357.597656 1882.839844 358.761719 1885.277344 359.976562 C 1892.972656 385.832031 1893.359375 412.433594 1892.472656 439.175781 C 1891.253906 436.824219 1890.09375 434.441406 1888.847656 431.980469 C 1886.523438 431.980469 1884.113281 431.980469 1881.707031 431.980469 C 1882.894531 434.386719 1884.058594 436.769531 1885.277344 439.175781 C 1885.441406 447.589844 1885.441406 456.035156 1885.277344 464.394531 C 1882.949219 465.558594 1880.542969 466.804688 1878.078125 468.019531 C 1878.078125 465.613281 1878.078125 463.230469 1878.078125 460.824219 C 1872.183594 461.988281 1866.261719 463.175781 1860.199219 464.394531 C 1859.007812 461.988281 1857.847656 459.660156 1856.628906 457.199219 C 1851.867188 458.359375 1847.132812 459.605469 1842.289062 460.824219 C 1841.074219 454.84375 1839.882812 448.949219 1838.664062 442.800781 C 1841.074219 442.800781 1843.398438 442.800781 1845.859375 442.800781 C 1846.25 439.675781 1846.582031 436.546875 1846.96875 433.363281 C 1849.597656 420.492188 1853.832031 411.160156 1859.976562 399.617188 C 1867.449219 385.445312 1873.402344 371.769531 1878.078125 356.40625 Z M 1878.078125 356.40625 "/>
<path style=" stroke:none;fill-rule:nonzero;fill:rgb(37.254903%,66.666669%,81.960785%);fill-opacity:1;" d="M 1523.179688 406.816406 C 1532.671875 406.816406 1542.140625 406.816406 1551.910156 406.816406 C 1551.910156 410.386719 1551.910156 413.957031 1551.910156 417.585938 C 1549.5 417.585938 1547.175781 417.585938 1544.714844 417.585938 C 1545.210938 424.558594 1545.765625 431.535156 1546.261719 438.511719 C 1546.734375 444.351562 1546.734375 444.351562 1547.175781 450.277344 C 1547.953125 460.988281 1547.953125 460.988281 1551.910156 471.59375 C 1558.996094 471.59375 1566.082031 471.59375 1573.386719 471.59375 C 1578.453125 461.378906 1578.230469 451.910156 1579.007812 440.558594 C 1579.285156 436.269531 1579.617188 431.980469 1579.894531 427.578125 C 1580.113281 424.285156 1580.335938 420.988281 1580.585938 417.585938 C 1578.175781 417.585938 1575.824219 417.585938 1573.386719 417.585938 C 1573.386719 414.070312 1573.386719 410.496094 1573.386719 406.816406 C 1581.691406 406.816406 1589.941406 406.816406 1598.464844 406.816406 C 1598.1875 416.007812 1597.800781 425.222656 1597.359375 434.496094 C 1597.304688 437.042969 1597.191406 439.675781 1597.136719 442.359375 C 1596.308594 458.414062 1594.339844 469.292969 1584.15625 482.414062 C 1570.703125 491.414062 1564.226562 491.523438 1548.285156 489.613281 C 1537.960938 483.773438 1537.960938 483.773438 1530.375 471.59375 C 1528.492188 458.636719 1527.71875 446.042969 1527.304688 432.976562 C 1526.859375 423.480469 1525.972656 415.785156 1523.179688 406.816406 Z M 1523.179688 406.816406 "/>
<path style=" stroke:none;fill-rule:nonzero;fill:rgb(9.803922%,30.980393%,49.411765%);fill-opacity:1;" d="M 1567.355469 496.144531 C 1573.386719 500.382812 1573.386719 500.382812 1580.585938 511.207031 C 1580.585938 514.777344 1580.585938 518.292969 1580.585938 521.972656 C 1577.015625 524.382812 1573.5 526.734375 1569.816406 529.199219 C 1567.6875 539.550781 1567.6875 539.550781 1567.355469 551.234375 C 1567.132812 555.191406 1566.855469 559.152344 1566.636719 563.21875 C 1566.523438 566.238281 1566.359375 569.253906 1566.246094 572.382812 C 1543.660156 576.785156 1543.660156 576.785156 1533.28125 573.601562 C 1526.804688 568.8125 1526.804688 568.8125 1524.589844 560.480469 C 1524.425781 557.269531 1524.257812 554.085938 1524.09375 550.789062 C 1523.925781 547.605469 1523.675781 544.421875 1523.457031 541.128906 C 1523.289062 535.925781 1523.179688 530.804688 1523.179688 525.628906 C 1518.445312 523.21875 1513.769531 520.867188 1508.867188 518.402344 C 1513.65625 509.265625 1517.558594 501.960938 1525.917969 495.648438 C 1540.035156 491.355469 1553.402344 491.191406 1567.355469 496.144531 Z M 1523.179688 504.007812 C 1520.023438 511.316406 1520.023438 511.316406 1519.609375 518.402344 C 1523.179688 518.402344 1526.695312 518.402344 1530.375 518.402344 C 1530.375 533.820312 1530.375 549.269531 1530.375 565.183594 C 1538.625 565.183594 1546.953125 565.183594 1555.480469 565.183594 C 1556.644531 559.207031 1557.886719 553.171875 1559.050781 547.21875 C 1559.714844 543.871094 1560.378906 540.519531 1561.097656 537.058594 C 1562.066406 531.910156 1562.066406 531.910156 1563.0625 526.734375 C 1563.785156 523.273438 1564.449219 519.871094 1565.113281 516.355469 C 1567.023438 507.578125 1567.023438 507.578125 1562.621094 500.382812 C 1547.34375 496.203125 1537.019531 495.703125 1523.179688 504.007812 Z M 1523.179688 504.007812 "/>
<path style=" stroke:none;fill-rule:nonzero;fill:rgb(85.490197%,28.627452%,23.529412%);fill-opacity:1;" d="M 2014.316406 410.386719 C 2017.886719 411.605469 2021.457031 412.769531 2025.082031 414.011719 C 2027.160156 457.804688 2024.585938 485.046875 1995.523438 519.09375 C 1977.917969 537.78125 1957.492188 558.761719 1931.914062 565.183594 C 1923.582031 563.828125 1923.582031 563.828125 1917.578125 561.613281 C 1919.847656 560.535156 1922.144531 559.539062 1924.496094 558.429688 C 1932.46875 555.027344 1932.46875 555.027344 1935.484375 547.21875 C 1939.167969 546.304688 1942.902344 545.421875 1946.695312 544.480469 C 1975.675781 536.617188 1990.179688 513.226562 2005.457031 488.839844 C 2014.621094 471.535156 2018.746094 455.535156 2020.183594 436.046875 C 2020.460938 432.589844 2020.683594 429.074219 2020.957031 425.5 C 2021.125 422.871094 2021.347656 420.324219 2021.511719 417.585938 C 2019.132812 417.585938 2016.78125 417.585938 2014.316406 417.585938 C 2013.984375 421.375 2013.984375 421.375 2013.652344 425.222656 C 2009.695312 439.34375 2002.550781 446.429688 1992.863281 457.199219 C 1990.457031 456.035156 1988.132812 454.789062 1985.667969 453.625 C 1987.105469 451.660156 1988.628906 449.777344 1990.125 447.8125 C 1992.089844 445.265625 1993.972656 442.746094 1995.992188 440.117188 C 1997.875 437.597656 1999.785156 435.105469 2001.777344 432.53125 C 2006.789062 425.335938 2010.691406 418.304688 2014.316406 410.386719 Z M 2014.316406 410.386719 "/>
<path style=" stroke:none;fill-rule:nonzero;fill:rgb(81.960785%,29.019609%,24.705882%);fill-opacity:1;" d="M 1878.078125 342.011719 C 1881.648438 343.203125 1885.222656 344.363281 1888.847656 345.582031 C 1896.484375 381.761719 1903.570312 416.644531 1896.042969 453.625 C 1892.472656 458.941406 1892.472656 458.941406 1888.847656 464.394531 C 1888.957031 460.160156 1889.011719 455.980469 1889.125 451.605469 C 1889.511719 420.269531 1889.234375 390.621094 1881.707031 359.976562 C 1880.265625 363.4375 1878.882812 366.84375 1877.359375 370.359375 C 1875.476562 374.953125 1873.511719 379.519531 1871.628906 384.089844 C 1870.660156 386.332031 1869.71875 388.574219 1868.78125 390.898438 C 1863.1875 404.074219 1856.90625 416.171875 1849.433594 428.40625 C 1846.914062 436.269531 1846.914062 436.269531 1845.859375 442.800781 C 1841.128906 441.640625 1836.367188 440.394531 1831.523438 439.175781 C 1833.019531 436.324219 1833.019531 436.324219 1834.652344 433.363281 C 1839.382812 424.558594 1844.0625 415.675781 1848.765625 406.816406 C 1851.203125 402.277344 1851.203125 402.277344 1853.667969 397.652344 C 1863.300781 379.464844 1871.355469 361.5 1878.078125 342.011719 Z M 1878.078125 342.011719 "/>
<path style=" stroke:none;fill-rule:nonzero;fill:rgb(17.647059%,16.862746%,17.254902%);fill-opacity:1;" d="M 1406.457031 431.316406 C 1410.027344 431.257812 1413.542969 431.257812 1417.222656 431.203125 C 1426.441406 431.980469 1426.441406 431.980469 1433.582031 439.175781 C 1435.078125 450.167969 1435.078125 450.167969 1435.796875 463.066406 C 1436.074219 467.355469 1436.347656 471.59375 1436.625 475.992188 C 1436.929688 480.976562 1436.929688 480.976562 1437.152344 485.988281 C 1432.003906 486.871094 1426.882812 487.730469 1421.679688 488.449219 C 1418.855469 488.949219 1415.949219 489.390625 1412.988281 489.835938 C 1404.90625 489.613281 1404.90625 489.613281 1394.140625 478.789062 C 1405.957031 479.980469 1417.777344 481.199219 1430.011719 482.414062 C 1428.820312 468.132812 1427.601562 453.902344 1426.441406 439.175781 C 1415.785156 437.433594 1415.785156 437.433594 1404.90625 435.605469 C 1404.90625 438.011719 1404.90625 440.339844 1404.90625 442.800781 C 1410.828125 443.964844 1416.726562 445.210938 1422.8125 446.375 C 1422.8125 448.78125 1422.8125 451.164062 1422.8125 453.625 C 1420.460938 453.625 1418.136719 453.625 1415.671875 453.625 C 1415.671875 455.980469 1415.671875 458.359375 1415.671875 460.824219 C 1418 460.824219 1420.40625 460.824219 1422.8125 460.824219 C 1421.625 465.558594 1420.460938 470.320312 1419.242188 475.21875 C 1413.320312 475.21875 1407.425781 475.21875 1401.335938 475.21875 C 1401.335938 471.648438 1401.335938 468.078125 1401.335938 464.394531 C 1403.6875 463.230469 1406.070312 461.988281 1408.476562 460.824219 C 1403.742188 458.414062 1399.039062 456.035156 1394.140625 453.625 C 1394.140625 448.835938 1394.140625 444.074219 1394.140625 439.175781 C 1391.8125 439.175781 1389.40625 439.175781 1386.996094 439.175781 C 1385.78125 445.15625 1384.617188 451.050781 1383.371094 457.199219 C 1379.855469 458.359375 1376.285156 459.605469 1372.605469 460.824219 C 1372.605469 458.414062 1372.605469 456.035156 1372.605469 453.625 C 1375.011719 453.625 1377.367188 453.625 1379.800781 453.625 C 1380.328125 450.71875 1380.878906 447.8125 1381.378906 444.824219 C 1384.894531 428.683594 1391.175781 431.425781 1406.457031 431.316406 Z M 1412.101562 464.394531 C 1410.882812 466.804688 1409.695312 469.128906 1408.476562 471.59375 C 1412.046875 470.429688 1415.617188 469.183594 1419.242188 468.019531 C 1416.890625 466.804688 1414.511719 465.613281 1412.101562 464.394531 Z M 1412.101562 464.394531 "/>
<path style=" stroke:none;fill-rule:nonzero;fill:rgb(81.568629%,25.490198%,21.568628%);fill-opacity:1;" d="M 1953.367188 478.789062 C 1954.613281 481.199219 1955.773438 483.550781 1956.992188 485.988281 C 1951.984375 496.089844 1946.058594 496.808594 1935.707031 500.824219 C 1930.890625 502.734375 1930.890625 502.734375 1925.992188 504.699219 C 1917.578125 507.578125 1917.578125 507.578125 1910.382812 507.578125 C 1910.382812 509.988281 1910.382812 512.339844 1910.382812 514.777344 C 1905.648438 514.777344 1900.886719 514.777344 1896.042969 514.777344 C 1896.042969 517.183594 1896.042969 519.539062 1896.042969 521.972656 C 1887.738281 524.382812 1879.492188 526.734375 1870.9375 529.199219 C 1870.9375 531.578125 1870.9375 533.933594 1870.9375 536.394531 C 1865.042969 537.613281 1859.121094 538.777344 1853.003906 540.023438 C 1859.285156 520.3125 1866.148438 501.292969 1874.507812 482.414062 C 1876.917969 482.414062 1879.269531 482.414062 1881.707031 482.414062 C 1879.269531 496.421875 1875.53125 508.214844 1870.9375 521.972656 C 1898.175781 507.746094 1925.382812 493.460938 1953.367188 478.789062 Z M 1953.367188 478.789062 "/>
<path style=" stroke:none;fill-rule:nonzero;fill:rgb(9.019608%,9.411765%,9.411765%);fill-opacity:1;" d="M 1308.085938 439.175781 C 1311.710938 442.800781 1311.710938 442.800781 1311.933594 452.019531 C 1311.820312 454.898438 1311.765625 457.804688 1311.710938 460.824219 C 1302.246094 460.824219 1292.75 460.824219 1283.007812 460.824219 C 1284.171875 464.339844 1285.386719 467.910156 1286.632812 471.59375 C 1293.71875 471.59375 1300.777344 471.59375 1308.085938 471.59375 C 1308.085938 475.164062 1308.085938 478.734375 1308.085938 482.414062 C 1298.671875 482.414062 1289.179688 482.414062 1279.4375 482.414062 C 1273.734375 470.925781 1274.453125 458.886719 1275.867188 446.375 C 1283.726562 431.867188 1293.664062 435.382812 1308.085938 439.175781 Z M 1308.085938 439.175781 "/>
<path style=" stroke:none;fill-rule:nonzero;fill:rgb(7.450981%,7.843138%,7.843138%);fill-opacity:1;" d="M 1315.28125 435.605469 C 1341.660156 433.863281 1341.660156 433.863281 1351.152344 441.003906 C 1356.328125 454.015625 1355.386719 464.78125 1354.722656 478.789062 C 1351.152344 480.589844 1351.152344 480.589844 1347.527344 482.414062 C 1346.363281 469.292969 1345.175781 456.257812 1343.957031 442.800781 C 1339.222656 443.964844 1334.460938 445.210938 1329.617188 446.375 C 1328.457031 457.085938 1327.265625 467.800781 1326.046875 478.789062 C 1322.476562 479.980469 1318.90625 481.199219 1315.28125 482.414062 C 1315.28125 466.96875 1315.28125 451.496094 1315.28125 435.605469 Z M 1315.28125 435.605469 "/>
<path style=" stroke:none;fill-rule:nonzero;fill:rgb(44.705883%,61.960787%,69.411767%);fill-opacity:1;" d="M 1648.675781 406.816406 C 1658.140625 406.816406 1667.636719 406.816406 1677.378906 406.816406 C 1676.160156 423.425781 1675 440.0625 1673.753906 457.199219 C 1672.589844 457.199219 1671.425781 457.199219 1670.183594 457.199219 C 1670.183594 442.96875 1670.183594 428.683594 1670.183594 414.011719 C 1667.855469 414.011719 1665.449219 414.011719 1662.984375 414.011719 C 1662.984375 423.480469 1662.984375 433.03125 1662.984375 442.800781 C 1660.660156 442.800781 1658.308594 442.800781 1655.84375 442.800781 C 1655.84375 434.496094 1655.84375 426.164062 1655.84375 417.585938 C 1653.464844 417.585938 1651.109375 417.585938 1648.675781 417.585938 C 1648.675781 414.070312 1648.675781 410.496094 1648.675781 406.816406 Z M 1648.675781 406.816406 "/>
<path style=" stroke:none;fill-rule:nonzero;fill:rgb(49.803922%,66.274512%,70.980394%);fill-opacity:1;" d="M 1612.804688 435.605469 C 1615.210938 438.011719 1617.535156 440.339844 1620 442.800781 C 1619.890625 451.382812 1619.890625 451.382812 1618.671875 461.265625 C 1618.285156 464.503906 1617.867188 467.800781 1617.425781 471.203125 C 1617.09375 473.722656 1616.761719 476.214844 1616.429688 478.789062 C 1618.78125 478.789062 1621.164062 478.789062 1623.570312 478.789062 C 1623.570312 482.359375 1623.570312 485.929688 1623.570312 489.613281 C 1614.132812 489.613281 1604.664062 489.613281 1594.894531 489.613281 C 1594.894531 486.042969 1594.894531 482.472656 1594.894531 478.789062 C 1597.246094 478.789062 1599.65625 478.789062 1602.089844 478.789062 C 1602.089844 481.199219 1602.089844 483.550781 1602.089844 485.988281 C 1604.445312 484.824219 1606.769531 483.660156 1609.234375 482.414062 C 1610.921875 471.425781 1610.921875 471.425781 1611.476562 458.746094 C 1611.75 454.457031 1612.027344 450.167969 1612.304688 445.710938 C 1612.472656 442.359375 1612.636719 439.066406 1612.804688 435.605469 Z M 1612.804688 435.605469 "/>
<path style=" stroke:none;fill-rule:nonzero;fill:rgb(7.450981%,7.843138%,7.450981%);fill-opacity:1;" d="M 1243.566406 442.800781 C 1245.972656 442.800781 1248.324219 442.800781 1250.761719 442.800781 C 1251.953125 448.726562 1253.113281 454.679688 1254.332031 460.824219 C 1256.683594 460.824219 1259.066406 460.824219 1261.527344 460.824219 C 1262.691406 464.339844 1263.882812 467.910156 1265.097656 471.59375 C 1270.441406 477.625 1270.441406 477.625 1275.867188 482.414062 C 1269.113281 481.472656 1269.113281 481.472656 1261.527344 478.789062 C 1257.015625 471.371094 1257.015625 471.371094 1254.332031 464.394531 C 1252.007812 464.394531 1249.597656 464.394531 1247.136719 464.394531 C 1241.351562 458.996094 1241.351562 458.996094 1236.421875 453.625 C 1239.996094 446.375 1239.996094 446.375 1243.566406 442.800781 Z M 1243.566406 442.800781 "/>
<path style=" stroke:none;fill-rule:nonzero;fill:rgb(26.666668%,23.921569%,24.313726%);fill-opacity:1;" d="M 1261.527344 414.011719 C 1271.132812 415.121094 1271.132812 415.121094 1279.4375 417.585938 C 1278.246094 421.15625 1277.085938 424.726562 1275.867188 428.40625 C 1261.527344 428.40625 1261.527344 428.40625 1250.761719 424.78125 C 1254.996094 419.191406 1254.996094 419.191406 1261.527344 414.011719 Z M 1261.527344 414.011719 "/>
<path style=" stroke:none;fill-rule:nonzero;fill:rgb(81.568629%,27.843139%,23.529412%);fill-opacity:1;" d="M 1982.097656 457.199219 C 1983.261719 460.769531 1984.449219 464.339844 1985.667969 468.019531 C 1981.433594 473.390625 1981.433594 473.390625 1974.902344 478.789062 C 1965.242188 479.453125 1965.242188 479.453125 1956.992188 478.789062 C 1965.074219 470.375 1972.328125 463.730469 1982.097656 457.199219 Z M 1982.097656 457.199219 "/>
<path style=" stroke:none;fill-rule:nonzero;fill:rgb(29.411766%,33.333334%,34.901962%);fill-opacity:1;" d="M 1942.65625 194.410156 C 1946.171875 194.410156 1949.742188 194.410156 1953.367188 194.410156 C 1953.367188 200.335938 1953.367188 206.316406 1953.367188 212.378906 C 1948.6875 213.566406 1943.957031 214.785156 1939.054688 216.003906 C 1940.273438 208.863281 1941.4375 201.71875 1942.65625 194.410156 Z M 1942.65625 194.410156 "/>
</g>
</svg>
